<svg width="136" height="13" viewBox="0 0 136 13" fill="none" xmlns="http://www.w3.org/2000/svg">
<path fill-rule="evenodd" clip-rule="evenodd" d="M115.532 5.02323V7.9702H114.058V0.15625H117.117C117.519 0.15625 117.869 0.223227 118.166 0.35718C118.464 0.483692 118.709 0.654855 118.903 0.870668C119.104 1.07904 119.253 1.3209 119.349 1.59625C119.454 1.86416 119.506 2.13951 119.506 2.4223V2.6902C119.506 2.98044 119.454 3.26695 119.349 3.54974C119.253 3.82509 119.104 4.07439 118.903 4.29765C118.709 4.51346 118.464 4.68834 118.166 4.8223C117.869 4.95625 117.519 5.02323 117.117 5.02323H115.532ZM115.532 3.61671H116.972C117.299 3.61671 117.556 3.52741 117.742 3.34881C117.936 3.1702 118.032 2.93951 118.032 2.65672V2.52276C118.032 2.23997 117.936 2.00927 117.742 1.83067C117.556 1.65206 117.299 1.56276 116.972 1.56276H115.532V3.61671ZM123.07 6.29578H125.727L126.106 7.9702H127.647L125.782 0.15625H123.014L121.15 7.9702H122.69L123.07 6.29578ZM125.403 4.88927H123.382L124.298 0.892995H124.499L125.403 4.88927ZM131.055 5.22416H131.39V7.9702H132.864V5.22416H133.198L135.442 0.15625H133.835L132.227 3.88462H132.026L130.419 0.15625H128.811L131.055 5.22416ZM44.0148 8.47621H45.8245C45.5581 10.7732 43.7454 12.1562 40.9665 12.1562H40.875C37.8588 12.1562 36.218 10.4488 35.7555 8.26529C35.5966 7.61925 35.519 6.95595 35.5243 6.29071C35.5169 5.57224 35.6099 4.85625 35.8007 4.16347C36.3145 2.03321 37.9463 0.435271 40.873 0.435271H40.9645C43.671 0.435271 45.5651 1.74898 45.8326 4.15142H44.0158C43.7382 2.04374 41.995 1.97481 41.1773 1.94248L41.1605 1.94182H41.0368H40.8006H40.6769C39.6775 1.95789 38.9336 2.07439 38.4761 2.69208C38.1292 3.16212 37.9483 3.92343 37.9483 5.15076V7.43067C37.9483 8.65298 38.1292 9.41328 38.4721 9.88333C38.9295 10.505 39.6785 10.6235 40.6769 10.6386H40.8006H40.9192H41.0368H41.1605L41.2047 10.6374C42.035 10.6156 43.7413 10.5706 44.0148 8.47621ZM4.74446 0.78006H0.474609V11.8115H5.08652C8.40212 11.8115 9.40885 10.3952 9.40885 8.65968C9.40885 7.34938 8.72863 6.44645 7.46535 6.07477C8.50901 5.66641 9.11732 4.88836 9.11732 3.68412C9.11732 1.78905 7.73064 0.78006 4.74446 0.78006ZM2.47349 5.41962V2.21425L5.23131 2.21227C6.79388 2.21227 7.05139 2.21227 7.05139 3.68214V4.07364C7.05139 5.41962 6.72391 5.41962 5.42177 5.41962H2.47349ZM7.29433 8.32368V8.81925C7.29433 10.377 6.84556 10.3773 5.42263 10.3783H5.42177H2.47349V6.80128H5.49174C6.89785 6.80128 7.29433 6.80128 7.29433 8.32368ZM15.2328 0.78006H13.1884V11.8115H19.7651L20.4045 10.3434H15.2328V0.78006ZM62.3268 0.78006H66.5972C69.583 0.78006 70.9696 1.78905 70.9696 3.68412C70.9696 4.88836 70.3613 5.66641 69.3178 6.07477C70.5809 6.44645 71.2611 7.34938 71.2611 8.65968C71.2611 10.3952 70.2544 11.8115 66.9392 11.8115H62.3268V0.78006ZM64.3255 2.21425V5.41962H67.2734C68.5754 5.41962 68.9029 5.41962 68.9029 4.07364V3.68214C68.9029 2.21227 68.6454 2.21227 67.083 2.21227L64.3255 2.21425ZM69.1458 8.81925V8.32368C69.1458 6.80128 68.7494 6.80128 67.3434 6.80128H64.3255V10.3783H67.2734H67.2743C68.6971 10.3773 69.1458 10.377 69.1458 8.81925ZM77.7901 0.78006H75.7283V11.8115H77.7901V0.78006ZM82.9446 0.78006H87.7897C90.2805 0.78006 91.8788 1.701 91.8788 3.8611C91.8749 4.38587 91.7145 4.8967 91.4195 5.32439C91.1245 5.75209 90.7091 6.07597 90.2295 6.25217C91.1912 6.67745 91.5865 7.36841 91.5865 8.62541V11.8115H89.5909V8.74932C89.5909 7.49232 89.3361 6.8896 87.8753 6.8896H84.9401V11.8115H82.9446V0.78006ZM84.9401 2.23235V5.4373H88.2359C89.3015 5.4373 89.7285 5.4373 89.7285 4.24771V3.64895C89.7285 2.23235 89.1639 2.23235 87.7031 2.23235H84.9401ZM99.8319 0.78006H96.3481L96.3461 11.8115H99.9026C103.744 11.8115 105.932 10.0081 105.967 6.35875C105.984 2.88781 103.868 0.78006 99.8319 0.78006ZM103.584 5.70342V6.74837C103.584 10.3443 102.436 10.3446 99.9896 10.3452L99.9165 10.3452H98.4075V2.23347H99.9006C102.27 2.23347 103.584 2.23347 103.584 5.70342ZM54.0125 5.05587L58.9344 0.78006H56.6731L50.9615 5.83094V0.78006H50.2836H48.9259V11.8115H50.2836H50.9615V7.69628L52.5537 6.32255L56.8311 11.8115H59.2346L54.0125 5.05587ZM33.4625 11.8115H31.3004L30.0108 8.73842H25.1574L23.8463 11.8115H22.1229L26.9081 0.78006H28.7602L33.4625 11.8115ZM27.608 2.99369L25.7842 7.27026H29.3986L27.608 2.99369Z" fill="#FCFCFC"/>
</svg>
