<svg width="1000" height="1000" viewBox="0 0 108 108" fill="none" xmlns="http://www.w3.org/2000/svg">
<rect width="1000" height="108" fill="black"/>
<path d="M64.7131 64.9094V30C63.2738 29.9972 61.8381 30.145 60.4285 30.4411C56.2602 31.308 52.4398 33.4186 49.4537 36.5039C46.4676 39.5892 44.4511 43.5097 43.6609 47.7659C42.8707 52.0222 43.3427 56.4216 45.0167 60.4038C46.6907 64.386 49.491 67.7707 53.0609 70.1269C50.0695 69.0104 47.3608 67.2279 45.1325 64.9094H24V69.2749H37.2842C40.6375 69.2754 43.9155 70.2867 46.7051 72.1813L51.0016 75.0936C53.7914 76.9879 57.0693 77.9992 60.4225 78H60.8498C64.2091 78.0031 67.4939 76.9917 70.2885 75.0936L74.591 72.1782C77.3781 70.2882 80.6513 69.2781 84 69.2749V64.9094H64.7131Z" fill="white"/>
</svg>
