<?xml version="1.0" standalone="no"?>
<!DOCTYPE svg PUBLIC "-//W3C//DTD SVG 20010904//EN"
 "http://www.w3.org/TR/2001/REC-SVG-20010904/DTD/svg10.dtd">
<svg version="1.0" xmlns="http://www.w3.org/2000/svg"
 width="700.000000pt" height="700.000000pt" viewBox="0 0 700.000000 700.000000"
 preserveAspectRatio="xMidYMid meet">
<metadata>
Created by potrace 1.14, written by Peter Selinger 2001-2017
</metadata>
<g transform="translate(0.000000,700.000000) scale(0.100000,-0.100000)"
fill="#000000" stroke="none">
<path d="M4677 6294 c-1 -1 -47 -4 -102 -8 -55 -3 -109 -8 -121 -10 -12 -2
-45 -7 -75 -11 -30 -4 -92 -16 -139 -27 -47 -11 -93 -21 -104 -23 -68 -15
-318 -99 -363 -124 -10 -5 -58 -29 -108 -52 -540 -257 -994 -745 -1226 -1319
-89 -220 -144 -442 -176 -700 -9 -79 -9 -463 1 -540 9 -70 9 -70 20 -145 20
-130 105 -436 150 -539 61 -139 97 -213 138 -285 27 -46 48 -86 48 -88 0 -12
183 -268 210 -293 3 -3 28 -32 56 -65 107 -126 277 -282 407 -372 42 -30 77
-56 77 -58 0 -6 -138 52 -220 93 -202 99 -428 258 -600 421 l-85 80 -1232 1
-1233 0 0 -254 0 -253 802 0 c712 0 934 -4 1003 -17 11 -2 54 -10 95 -17 41
-7 77 -13 80 -14 3 -1 19 -5 35 -9 264 -66 433 -148 768 -374 479 -322 540
-359 707 -430 133 -56 308 -107 433 -126 20 -3 52 -8 70 -11 146 -22 453 -22
577 0 14 3 40 7 58 10 88 14 181 38 274 69 261 87 349 137 898 512 85 58 162
108 170 111 8 3 22 12 30 19 26 21 217 114 309 148 97 38 253 81 321 91 25 4
63 10 85 15 39 8 140 17 238 22 l47 2 0 253 0 253 -1125 0 -1125 0 0 2033 0
2032 -36 0 c-20 0 -36 -1 -37 -1z"/>
</g>
</svg>
